<?xml version="1.0" encoding="UTF-8" standalone="no"?>
<!-- Created with Inkscape (http://www.inkscape.org/) -->

<svg
   version="1.1"
   id="svg1"
   width="375.65216"
   height="375.65216"
   viewBox="0 0 375.65216 375.65216"
   sodipodi:docname="tao-drawn.svg"
   inkscape:version="1.4.2 (ebf0e940d0, 2025-05-08)"
   xmlns:inkscape="http://www.inkscape.org/namespaces/inkscape"
   xmlns:sodipodi="http://sodipodi.sourceforge.net/DTD/sodipodi-0.dtd"
   xmlns:xlink="http://www.w3.org/1999/xlink"
   xmlns="http://www.w3.org/2000/svg"
   xmlns:svg="http://www.w3.org/2000/svg">
  <defs
     id="defs1" />
  <sodipodi:namedview
     id="namedview1"
     pagecolor="#ffffff"
     bordercolor="#000000"
     borderopacity="0.25"
     inkscape:showpageshadow="2"
     inkscape:pageopacity="0.0"
     inkscape:pagecheckerboard="0"
     inkscape:deskcolor="#d1d1d1"
     inkscape:zoom="1.7091651"
     inkscape:cx="197.75737"
     inkscape:cy="188.10353"
     inkscape:window-width="1220"
     inkscape:window-height="774"
     inkscape:window-x="0"
     inkscape:window-y="0"
     inkscape:window-maximized="1"
     inkscape:current-layer="g1" />
  <g
     inkscape:groupmode="layer"
     inkscape:label="Image"
     id="g1"
     style="display:none;opacity:1">
    <image
       width="375.65216"
       height="375.65216"
       preserveAspectRatio="none"
       xlink:href="../../blender/images/tao/tao-drawn.png"
       id="image1" />
  </g>
  <g
     inkscape:groupmode="layer"
     id="layer1"
     inkscape:label="simple outline"
     style="opacity:1;mix-blend-mode:normal">
    <path
       style="fill:#e1c2f1;fill-opacity:1"
       d="m 306.95242,236.11303 c -4.75795,0.68665 -12.58845,2.6459 -12.99002,3.60967 -1.58223,-1.40777 -0.8529,0.13771 -1.85474,0.49277 -0.6588,0.23349 0.20054,-1.6574 -0.68567,-1.4797 -0.50608,0.10148 -0.75687,1.50826 -0.96219,1.54995 -0.52639,0.10687 -0.34594,-1.70765 -1.26909,-1.03039 -0.77493,0.56852 -3.10793,1.55081 -4.05099,1.76725 -1.30572,0.29966 -1.41655,-0.38585 -2.72879,-0.0445 -2.41435,0.62807 -4.5606,2.86319 -7.03684,3.45614 -0.58247,0.13947 -1.2773,-1.17283 -2.36541,-0.89781 -1.21078,0.30602 -2.51049,1.27064 -3.74405,1.5921 -1.25886,0.32805 -1.33452,-1.00042 -2.63122,-0.73165 -2.67022,0.55346 -3.33753,3.33582 -4.76832,3.54141 -9.9494,1.42961 -18.96296,3.31753 -25.83956,3.749 -0.56451,0.0354 -1.41051,1.62854 -1.97561,1.69967 -8.91223,1.12175 -18.40594,3.80974 -28.78848,1.59501 -7.10794,-2.50007 -10.71362,-0.2966 -13.8871,-3.00244 l -0.18678,1.27553 c 0,0 -5.03398,-0.98054 -7.90049,-1.26226 0,0 1.03282,-0.95872 0.66389,-1.00836 -20.38854,-2.74302 -44.08507,-3.27991 -61.34314,-6.03701 -5.85728,-1.56368 -17.40905,-8.04685 -54.794555,-8.39404 l 0.05013,3.45936 1.835171,1.0347 -1.73836,0.40364 0.781667,2.91353 c 59.427987,19.03684 116.764527,38.48235 178.833677,62.19342 2.72103,-1.3015 4.13193,-3.86657 8.93471,-1.62909 13.22964,-3.9393 6.96405,1.13005 25.86797,-12.18464 0.61478,-0.43301 -4.48593,-0.0116 4.34783,-5.09082 l -2.57089,-0.9672 c -0.11119,-0.2864 1.15392,-1.02835 1.08618,-1.40898 -0.0677,-0.38063 -1.56056,-1.00937 -1.56056,-1.00937 0.45434,-2.08007 2.80833,-7.69805 5.1813,-11.44767 -0.4363,-0.74635 -1.92525,-1.61268 -1.84273,-2.69569 0.17095,-2.24341 2.06496,-4.71419 1.67728,-5.67291 l -0.60927,-0.65415 c 0,0 7.26158,-9.44196 11.65535,-15.21015 -0.49257,-0.34505 -9.38581,6.66215 -9.38581,6.66215 1.93235,-2.24532 6.27375,-7.13528 5.99721,-7.4031 -0.39753,-0.385 -3.05818,1.62371 -3.51659,1.45255 -0.26293,-0.0982 1.48466,-1.70222 2.78362,-2.95564 0.20884,-0.20152 -0.81898,0.33074 -3.6035,1.70763 3.31531,-2.83202 8.99646,-6.92761 11.15587,-8.645 2.15941,-1.71739 -3.59085,0.60875 -3.59085,0.60875 0,0 6.80385,-3.38936 7.36975,-3.90168 z"
       id="path5"
       sodipodi:nodetypes="ccsssssssssssssccccsccccccccscccscsccccsssccccc" />
    <path
       style="fill:#e1c2f1;fill-opacity:1"
       d="m 107.21474,180.72099 c 10.72502,7.74642 20.56131,15.60394 32.5351,23.19427 l 4.84079,-1.20962 c 2.23446,4.1248 7.91505,9.34609 12.86063,14.33352 1.5382,2.26052 1.57857,5.83165 2.17474,8.91644 l -4.34948,4.34949 c -2.81693,-1.39336 -8.36068,-0.90701 -7.52902,-0.45818 0.45221,0.24404 -1.83971,-3.50154 -7.63463,-5.63848 l -5.96687,1.79176 -0.26772,-2.34529 -26.17459,12.34594 1.19574,-1.60728 -9.219585,4.13077 -1.251238,-0.44448 4.322243,-2.67391 -5.00441,1.06008 c 10.07731,-8.60933 19.80786,-16.0606 28.91085,-24.38538 -13.25218,-11.64 -4.85517,-5.59178 -17.2533,-20.45705 z"
       id="path6"
       sodipodi:nodetypes="ccccccscccccccccccc" />
    <path
       style="fill:#e1c2f1;fill-opacity:1"
       d="m 103.59554,157.106 c -0.48911,-3.32473 0.36233,-4.15698 1.44267,-5.11178 l 9.456,-1.64544 c 3.36029,0.77166 6.43873,0.985 8.99396,1.18162 7.80144,2.44815 9.4529,5.08195 12.62829,6.26234 l 3.71997,5.88963 c -0.69025,1.57116 -0.61741,3.44542 -2.29114,5.703 -0.50731,0.99185 0.94455,1.95084 -5.47958,6.55684 -0.54708,-0.82583 -1.12375,-1.64179 -0.95478,-2.7063 0.51461,-0.87294 0.95506,-1.77555 1.90933,-2.47264 z"
       id="path7"
       sodipodi:nodetypes="ccccccccccc" />
    <path
       style="fill:#e1c2f1;fill-opacity:1"
       d="m 122.23981,125.51723 c 6.50952,2.20279 7.04013,1.68685 15.84834,-1.97278 6.10041,-2.5346 14.6292,-7.61405 33.48443,-17.12317 -1.2443,-9.864842 -0.60443,-8.188958 -3.63404,-14.533405 1.90215,-4.594454 1.23162,-3.298481 1.4364,-11.705864 7.00263,-13.588725 16.39203,-22.771107 19.06257,-44.357542 9.91046,4.341862 9.26681,11.164578 11.44677,12.009308 -1.6802,21.598992 -2.15727,0.55298 -6.82585,37.704869 11.70114,-12.486587 22.96679,-24.497529 28.90312,-35.254674 l -8.4795,-0.233646 c 0.35241,-1.251609 2.45415,-2.198987 4.03482,-3.236984 -1.22837,-0.751246 -1.87049,-0.893146 -1.71034,-2.180596 3.61589,-1.201375 4.33611,-2.05411 6.57604,-5.044742 2.72396,1.20294 4.18586,1.052981 7.50836,0.410027 8.04462,6.83337 10.30959,8.650933 14.06847,14.904923 -1.26641,8.21216 -0.79093,10.847504 -4.57927,14.244282 -2.40087,2.751093 -4.62011,5.089769 -8.23813,6.230348 -3.14483,0.991408 -7.34648,1.077613 -13.64283,-0.257357 -10.50067,5.05887 -16.1245,11.156954 -24.68696,17.427204 l -0.42911,1.887238 c 25.19709,-11.93875 23.09427,-14.073026 60.45806,-25.234534 0.37965,-2.26765 3.10399,-4.669237 4.55046,-6.554541 0.68261,0.434071 1.31343,0.570843 1.9317,1.583927 l 2.70336,-2.649404 3.81059,1.629222 1.79868,-2.529221 17.91102,8.252898 c 2.53125,1.905092 7.44329,5.704951 6.17119,9.102622 -1.0367,4.487585 -2.06489,3.542884 -10.09412,6.285963 0.92708,1.670502 2.82307,3.737373 1.58863,4.523618 -4.1978,0.458719 -5.32206,-0.831962 -8.70321,-1.661788 l 1.63182,2.005759 c -2.038,-0.0048 -4.13435,-0.224972 -6.07743,-0.990088 -1.35859,0.281863 -1.88692,1.191209 -3.89951,0.62223 -0.98178,-1.194295 0.80163,-1.688255 0.67973,-2.046699 -0.16447,-0.483641 -1.52229,-0.849205 -1.52229,-0.849205 -24.03745,8.035925 -43.33651,23.115872 -73.0522,36.110852 -1.49837,5.19805 -1.35161,11.44301 -1.7102,17.36639 8.37374,-7.15322 16.70773,-14.34052 25.84546,-20.83889 l 2.90398,-5.42857 c 5.70236,-0.58811 12.9199,-0.64458 18.07912,-0.0843 0.28276,6.61469 0.0265,-5.39128 1.81014,9.15255 -2.63706,4.84272 3.79375,36.75042 2.79579,78.53315 0.95597,14.3564 3.26629,20.29075 3.78102,27.54597 l -1.63465,5.7228 c -3.81194,3.19632 -7.75748,5.41937 -12.16278,4.29274 -2.57425,-1.38105 -6.51299,-0.30686 -7.18887,-7.02913 0,0 -9.57002,-8.59642 -9.07057,-9.38987 3.68154,-5.84875 -5.37189,-3.37576 0.78505,-8.32215 0.45439,-0.36505 -3.03203,-4.74764 -4.51019,-4.80018 -1.23571,-0.0439 -19.07823,20.13572 -20.43876,20.24038 l -4.65047,-1.07318 c -1.8326,2.16551 -3.66505,4.32892 -5.36594,4.65047 -2.39665,0.63907 -5.77154,-3.69202 -8.28143,-6.86497 -0.79032,-0.0943 -1.3027,0.10702 -1.66915,-0.52185 -1.89555,-4.59233 -2.31856,-6.90123 -7.53827,-7.83028 -0.69408,-1.64638 1.23238,-0.6763 1.45586,-1.17006 -0.16271,-0.68879 -1.14868,-3.10726 -0.78026,-3.64565 9.10743,-30.52133 9.76068,-27.78726 12.38924,-42.21488 2.00225,-10.9899 0.19231,-8.5441 4.78174,-41.85137 -13.86321,12.72871 -41.25336,23.00143 -47.38391,24.75123 -2.09601,-0.75605 -2.94771,-2.32412 -6.47186,-3.67307 -2.99032,-7.19737 -9.60245,-23.03046 -5.79986,-24.03633 z"
       id="path4"
       sodipodi:nodetypes="csccccccccccccccscccccccccccccccccsccccccccccccsssccccccccscccc" />
    <path
       style="mix-blend-mode:color-dodge;fill:#e1c2f1;fill-opacity:1"
       d="m 223.3079,125.64454 2.47496,9.82982 c -16.22443,11.03378 -23.93079,15.11037 -36.0147,25.28772 l 0.36845,-7.06695 c 7.4414,-6.065 10.69819,-12.46085 20.16911,-19.98938 3.4684,-2.99623 8.06646,-5.58902 13.00218,-8.06121 z"
       id="path8"
       sodipodi:nodetypes="cccccc" />
    <path
       style="mix-blend-mode:color-dodge;fill:#e1c2f1;fill-opacity:1"
       d="m 188.86555,180.13841 c 9.02806,-6.08427 18.1628,-11.38618 27.51336,-15.10547 3.12797,-1.43971 7.10828,-1.3341 10.71999,-0.75631 l -0.36105,-18.77447 -8.21712,6.07779 c 0.62911,-1.41855 -0.66462,-1.59146 -2.03559,-1.37359 -7.75458,7.8154 -17.42848,14.67114 -27.13182,21.51216 z"
       id="path9"
       sodipodi:nodetypes="cccccccc" />
    <path
       style="mix-blend-mode:color-dodge;fill:#e1c2f1;fill-opacity:1"
       d="m 189.00838,194.78515 29.97955,-19.91422 -3.9301,7.64238 c 4.14028,-4.49234 8.33519,-8.89726 12.04107,-14.08463 l -0.90262,18.41342 c -4.48384,3.14551 -8.64211,6.29101 -14.3315,9.43652 -3.33541,0.47638 -8.31344,-1.2374 -12.47886,-1.86772 l 3.91133,3.22677 c -3.09719,0.6423 -7.42556,-1.17778 -11.87437,-3.23874 0.64526,4.57023 7.01431,5.42876 11.30531,8.87083 l -10.28985,6.31833 -3.27636,-0.99018 z"
       id="path10"
       sodipodi:nodetypes="ccccccccccccc" />
  </g>
</svg>
